<svg width="101" height="101" viewBox="0 0 101 101" fill="none" xmlns="http://www.w3.org/2000/svg">
<path d="M42.3521 38.25C39.0368 38.25 35.8574 39.567 33.5132 41.9112C31.169 44.2554 29.8521 47.4348 29.8521 50.75C29.8521 54.0652 31.169 57.2446 33.5132 59.5888C35.8574 61.933 39.0368 63.25 42.3521 63.25" stroke="white" stroke-width="3.5" stroke-linecap="round" stroke-linejoin="round"/>
<path d="M9.01904 50.75H13.1857" stroke="white" stroke-width="3.5" stroke-linecap="round" stroke-linejoin="round"/>
<path d="M59.019 88.25V13.25" stroke="white" stroke-width="3.5" stroke-linecap="round" stroke-linejoin="round"/>
<path d="M42.3521 17.4167V13.25" stroke="white" stroke-width="3.5" stroke-linecap="round" stroke-linejoin="round"/>
<path d="M42.3521 88.25V84.0834" stroke="white" stroke-width="3.5" stroke-linecap="round" stroke-linejoin="round"/>
<path d="M15.8521 77.25L18.7687 74.3334" stroke="white" stroke-width="3.5" stroke-linecap="round" stroke-linejoin="round"/>
<path d="M18.7687 27.1667L15.8521 24.25" stroke="white" stroke-width="3.5" stroke-linecap="round" stroke-linejoin="round"/>
<path d="M59.019 50.75H92.3524" stroke="white" stroke-width="3.5" stroke-linecap="round" stroke-linejoin="round"/>
<path d="M71.519 17.4166L59.019 29.9166" stroke="white" stroke-width="3.5" stroke-linecap="round" stroke-linejoin="round"/>
<path d="M59.019 71.5834L71.519 84.0834" stroke="white" stroke-width="3.5" stroke-linecap="round" stroke-linejoin="round"/>
<path d="M88.1855 63.25L75.6855 50.75L88.1855 38.25" stroke="white" stroke-width="3.5" stroke-linecap="round" stroke-linejoin="round"/>
</svg>
