<svg width="102" height="101" viewBox="0 0 102 101" fill="none" xmlns="http://www.w3.org/2000/svg">
<path d="M47.1117 4.51284C48.6118 1.16239 53.3882 1.16239 54.8883 4.51284L66.4651 30.3708C67.0837 31.7527 68.3953 32.7015 69.9065 32.8603L98.1843 35.8318C101.848 36.2168 103.324 40.7397 100.587 43.1954L79.4644 62.148C78.3356 63.1609 77.8346 64.696 78.1499 66.176L84.0498 93.8705C84.8142 97.4589 80.95 100.254 77.7584 98.4215L53.1269 84.2768C51.8106 83.521 50.1894 83.521 48.8731 84.2768L24.2416 98.4215C21.05 100.254 17.1858 97.4589 17.9502 93.8705L23.8501 66.176C24.1654 64.696 23.6644 63.1609 22.5356 62.148L1.41261 43.1954C-1.32431 40.7397 0.151705 36.2168 3.81569 35.8318L32.0935 32.8603C33.6047 32.7015 34.9163 31.7527 35.5349 30.3708L47.1117 4.51284Z" fill="#FFBC47"/>
</svg>
