<svg width="100" height="101" viewBox="0 0 100 101" fill="none" xmlns="http://www.w3.org/2000/svg">
<path d="M20.8333 29.9166L12.5 21.5833" stroke="white" stroke-width="4" stroke-linecap="round" stroke-linejoin="round"/>
<path d="M37.5 25.75V13.25" stroke="white" stroke-width="4" stroke-linecap="round" stroke-linejoin="round"/>
<path d="M54.1665 29.9166L62.4998 21.5833" stroke="white" stroke-width="4" stroke-linecap="round" stroke-linejoin="round"/>
<path d="M37.5 67.4167C44.4036 67.4167 50 61.8202 50 54.9167C50 48.0131 44.4036 42.4167 37.5 42.4167C30.5964 42.4167 25 48.0131 25 54.9167C25 61.8202 30.5964 67.4167 37.5 67.4167Z" stroke="white" stroke-width="4" stroke-linecap="round" stroke-linejoin="round"/>
<path d="M49.2918 50.75H83.3335C85.5436 50.75 87.6633 51.628 89.2261 53.1908C90.7889 54.7536 91.6668 56.8732 91.6668 59.0833V75.75C91.6668 77.9601 90.7889 80.0798 89.2261 81.6426C87.6633 83.2054 85.5436 84.0833 83.3335 84.0833H16.6668C14.4567 84.0833 12.3371 83.2054 10.7743 81.6426C9.21147 80.0798 8.3335 77.9601 8.3335 75.75V59.0833C8.3335 56.8732 9.21147 54.7536 10.7743 53.1908C12.3371 51.628 14.4567 50.75 16.6668 50.75H25.7085" stroke="white" stroke-width="4" stroke-linecap="round" stroke-linejoin="round"/>
<path d="M66.6665 67.4167H74.9998" stroke="white" stroke-width="4" stroke-linecap="round" stroke-linejoin="round"/>
</svg>
