<svg width="194" height="151" viewBox="0 0 194 151" fill="none" xmlns="http://www.w3.org/2000/svg">
<path d="M140.019 13.2171L138.256 14.9805L140.019 13.2171C137.538 10.7358 133.517 10.7358 131.036 13.2171L132.803 14.9849L131.036 13.2171L123.33 20.9226C120.849 23.4039 120.849 27.4248 123.33 29.9061C125.811 32.3874 129.832 32.3874 132.314 29.9061L140.019 22.2007C142.5 19.7194 142.5 15.6984 140.019 13.2171ZM109.932 108.169L108.439 107.058L106.946 108.17C104.132 110.265 100.715 111.527 97 111.527C93.2852 111.527 89.8676 110.265 87.0544 108.17L85.5614 107.058L84.0682 108.169C78.7288 112.145 75.2363 118.71 75.2363 125.842V133.291C75.2363 136.802 78.0797 139.644 81.589 139.644H112.411C115.92 139.644 118.764 136.802 118.764 133.291V125.842C118.764 118.71 115.271 112.145 109.932 108.169ZM63.6989 108.169L62.2057 107.058L60.7127 108.17C57.8996 110.265 54.4819 111.527 50.7671 111.527C47.0524 111.527 43.6347 110.265 40.8216 108.17L39.3285 107.058L37.8353 108.169C32.5538 112.102 28.7466 118.642 28.7466 125.842V133.291C28.7466 137.005 32.0588 139.644 35.3562 139.644H66.1781C69.6874 139.644 72.5308 136.802 72.5308 133.291V125.842C72.5308 118.71 69.0383 112.145 63.6989 108.169ZM156.165 108.169L154.671 107.058L153.178 108.17C150.365 110.265 146.948 111.527 143.233 111.527C139.518 111.527 136.1 110.265 133.287 108.17L131.794 107.058L130.301 108.169C124.962 112.145 121.469 118.71 121.469 125.842V133.291C121.469 136.802 124.313 139.644 127.822 139.644H158.901C162.41 139.644 165.253 136.802 165.253 133.291V125.842C165.253 118.642 161.446 112.102 156.165 108.169ZM36.7089 94.7637C36.7089 102.517 43.0133 108.822 50.7671 108.822C58.5209 108.822 64.8253 102.517 64.8253 94.7637C64.8253 87.0099 58.5209 80.7054 50.7671 80.7054C43.0133 80.7054 36.7089 87.0099 36.7089 94.7637ZM97 108.822C104.754 108.822 111.058 102.517 111.058 94.7637C111.058 87.0099 104.754 80.7054 97 80.7054C89.2462 80.7054 82.9418 87.0099 82.9418 94.7637C82.9418 102.517 89.2462 108.822 97 108.822ZM143.233 108.822C150.987 108.822 157.291 102.517 157.291 94.7637C157.291 87.0099 150.987 80.7054 143.233 80.7054C135.479 80.7054 129.175 87.0099 129.175 94.7637C129.175 102.517 135.479 108.822 143.233 108.822ZM97 11.3561C84.9982 11.3561 75.2363 21.118 75.2363 33.1198C75.2363 39.5624 78.1178 45.6364 82.9418 49.7314V56.2363C82.9418 59.7475 85.7852 62.589 89.2945 62.589H104.705C108.215 62.589 111.058 59.7475 111.058 56.2363V49.7314C115.882 45.6364 118.764 39.5624 118.764 33.1198C118.764 21.118 109.002 11.3561 97 11.3561ZM104.705 78C108.215 78 111.058 75.1584 111.058 71.6472C111.058 68.1375 108.215 65.2945 104.705 65.2945H89.2945C85.7848 65.2945 82.9418 68.1375 82.9418 71.6472C82.9418 75.1584 85.7852 78 89.2945 78H104.705ZM143.233 47.1781C146.742 47.1781 149.586 44.3365 149.586 40.8253C149.586 37.3156 146.743 34.4726 143.233 34.4726H135.527C132.018 34.4726 129.175 37.3156 129.175 40.8253C129.175 44.3365 132.018 47.1781 135.527 47.1781H143.233ZM123.33 51.7445C120.849 54.2258 120.849 58.2468 123.33 60.728L131.036 68.4335C133.517 70.9148 137.538 70.9148 140.019 68.4335C142.5 65.9522 142.5 61.9313 140.019 59.45L132.314 51.7445C129.832 49.2632 125.811 49.2632 123.33 51.7445ZM58.4726 47.1781C61.9819 47.1781 64.8253 44.3365 64.8253 40.8253C64.8253 37.3156 61.9824 34.4726 58.4726 34.4726H50.7671C47.2574 34.4726 44.4144 37.3156 44.4144 40.8253C44.4144 44.3365 47.2578 47.1781 50.7671 47.1781H58.4726ZM70.6699 51.7445C68.1886 49.2632 64.1676 49.2632 61.6863 51.7445L53.9808 59.45C51.4995 61.9313 51.4995 65.9522 53.9808 68.4335C56.4621 70.9148 60.4831 70.9148 62.9644 68.4335L70.6699 60.7281C73.1511 58.2468 73.1511 54.2258 70.6699 51.7445ZM53.9808 13.2171C51.4995 15.6984 51.4995 19.7194 53.9808 22.2007L61.6863 29.9061C64.1676 32.3874 68.1886 32.3874 70.6699 29.9061C73.1511 27.4248 73.1511 23.4039 70.6699 20.9226L62.9644 13.2171C60.4831 10.7358 56.4621 10.7358 53.9808 13.2171Z" stroke="#0056A8" stroke-width="5"/>
</svg>
