<svg width="266" height="151" viewBox="0 0 266 151" fill="none" xmlns="http://www.w3.org/2000/svg">
<path d="M209.016 68.0045C208.613 68.0045 208.219 68.0458 207.838 68.1224V50.9235C207.838 45.7716 203.648 41.58 198.498 41.58H197.136C195.809 41.58 194.734 42.6556 194.734 43.9824C194.734 45.3091 195.809 46.3847 197.136 46.3847H198.498C200.999 46.3847 203.033 48.4209 203.033 50.9235L203.033 86.9516H169.099V50.9235C169.099 48.4209 171.134 46.3847 173.635 46.3847H186.207C187.534 46.3847 188.609 45.3091 188.609 43.9824C188.609 42.6556 187.534 41.58 186.207 41.58H179.817V30.0251C179.817 24.8748 175.627 20.6848 170.477 20.6848H145.614C140.464 20.6848 136.274 24.8748 136.274 30.0251V41.5816H129.726V30.0251C129.726 24.8748 125.536 20.6848 120.386 20.6848H95.5234C90.3731 20.6848 86.1831 24.8748 86.1831 30.0251V41.58H67.5025C62.3522 41.58 58.1622 45.7716 58.1622 50.9235V68.1224C57.781 68.0458 57.3874 68.0045 56.9838 68.0045C53.6842 68.0045 51 70.6887 51 73.9883V96.9982C51 101.061 54.305 104.365 58.3672 104.365H73.3444V118.624H70.7489C66.7216 118.624 63.4451 121.9 63.4451 125.928V126.363C63.4451 129.364 65.8865 131.805 68.8872 131.805H90.9821C93.9831 131.805 96.4242 129.363 96.4242 126.363V125.928C96.4242 121.9 93.1477 118.624 89.1204 118.624H86.5249V104.365H101.502C103.413 104.365 105.156 103.634 106.467 102.436C107.778 103.634 109.521 104.365 111.432 104.365H126.409V118.624H123.813C119.786 118.624 116.51 121.901 116.51 125.928V126.363C116.51 129.364 118.951 131.805 121.952 131.805H127.474C128.801 131.805 129.876 130.73 129.876 129.403C129.876 128.076 128.801 127.001 127.474 127.001H121.952C121.6 127.001 121.314 126.715 121.314 126.363V125.928C121.314 124.55 122.435 123.429 123.813 123.429H142.186C143.564 123.429 144.684 124.55 144.684 125.928V126.363C144.684 126.715 144.398 127.001 144.047 127.001H138.525C137.198 127.001 136.122 128.076 136.122 129.403C136.122 130.73 137.198 131.805 138.525 131.805H144.047C147.048 131.805 149.489 129.364 149.489 126.363V125.928C149.489 121.901 146.213 118.624 142.186 118.624H139.59V104.365H154.567C156.478 104.365 158.221 103.634 159.532 102.436C160.843 103.634 162.586 104.365 164.497 104.365H179.474V118.624H176.878C172.851 118.624 169.575 121.9 169.575 125.928V126.363C169.575 129.364 172.016 131.805 175.017 131.805H197.112C200.113 131.805 202.554 129.363 202.554 126.363V125.928C202.554 121.9 199.277 118.624 195.25 118.624H192.654V104.365H207.633C211.695 104.365 215 101.06 215 96.9982V73.9883C215 70.6887 212.316 68.0045 209.016 68.0045ZM209.016 72.8092C209.667 72.8092 210.195 73.3381 210.195 73.9883V86.9513H207.838V73.9819C207.841 73.3348 208.368 72.8092 209.016 72.8092ZM116.032 86.9513V50.9219C116.032 48.4206 118.067 46.3857 120.569 46.3857H145.431C147.932 46.3857 149.967 48.4206 149.967 50.9219V86.9513H116.032ZM108.87 86.9513V73.9883C108.87 73.3384 109.399 72.8092 110.049 72.8092C110.699 72.8092 111.228 73.3381 111.228 73.9883V86.9513H108.87ZM104.065 86.9513H101.707V73.9883C101.707 73.3384 102.236 72.8092 102.886 72.8092C103.536 72.8092 104.065 73.3381 104.065 73.9883V86.9513ZM154.772 73.9883C154.772 73.3384 155.301 72.8092 155.951 72.8092C156.602 72.8092 157.13 73.3381 157.13 73.9883V86.9513H154.772V73.9883ZM161.935 73.9883C161.935 73.3384 162.464 72.8092 163.114 72.8092C163.764 72.8092 164.293 73.3381 164.293 73.9883V86.9513H161.935V73.9883ZM141.078 30.0247C141.078 27.5237 143.113 25.4891 145.614 25.4891H170.477C172.978 25.4891 175.012 27.5237 175.012 30.0247V41.5797H173.635C168.485 41.5797 164.295 45.7713 164.295 50.9232V68.1227C163.913 68.0458 163.518 68.0045 163.114 68.0045C161.77 68.0045 160.532 68.4552 159.532 69.206C158.532 68.4552 157.295 68.0045 155.951 68.0045C155.547 68.0045 155.153 68.0458 154.772 68.1224V50.9219C154.772 45.7713 150.582 41.581 145.431 41.581H141.078V30.0247ZM67.5025 46.3844H92.3652C94.8662 46.3844 96.9008 48.4206 96.9008 50.9232V50.9873C96.9008 52.314 97.9764 53.3896 99.3031 53.3896C100.63 53.3896 101.705 52.314 101.705 50.9873V50.9232C101.705 45.7713 97.5155 41.5797 92.3652 41.5797H90.9878V30.0247C90.9878 27.5237 93.0224 25.4891 95.5234 25.4891H120.386C122.887 25.4891 124.922 27.5237 124.922 30.0247V41.5813H120.569C115.418 41.5813 111.228 45.7716 111.228 50.9223V68.1227C110.846 68.0462 110.452 68.0048 110.049 68.0048C108.705 68.0048 107.467 68.4555 106.467 69.2063C105.467 68.4555 104.23 68.0048 102.886 68.0048C102.482 68.0048 102.087 68.0462 101.705 68.123V62.1985C101.705 60.8718 100.63 59.7962 99.3028 59.7962C97.9761 59.7962 96.9005 60.8718 96.9005 62.1985V86.9516H62.9675L62.9669 50.9235C62.9669 48.4206 65.0015 46.3844 67.5025 46.3844ZM55.8047 73.9883C55.8047 73.3384 56.3335 72.8092 56.9838 72.8092C57.6318 72.8092 58.1587 73.3348 58.1622 73.9819V86.9513H55.8047V73.9883ZM91.6198 125.928V126.363C91.6198 126.714 91.3338 127 90.9824 127H68.8875C68.5358 127 68.2501 126.714 68.2501 126.363V125.928C68.2501 124.55 69.3712 123.429 70.7492 123.429H89.121C90.4987 123.429 91.6198 124.55 91.6198 125.928ZM81.7205 118.624H78.1491V104.365H81.7205V118.624ZM101.503 99.5607H58.3672C56.954 99.5607 55.8047 98.4111 55.8047 96.9982V91.756H104.065V96.9982C104.065 98.4111 102.916 99.5607 101.503 99.5607ZM134.786 118.624H131.215V104.365H134.786V118.624ZM154.568 99.5607H111.432C110.019 99.5607 108.87 98.4111 108.87 96.9982V91.756H157.13V96.9982C157.13 98.4111 155.981 99.5607 154.568 99.5607ZM197.75 125.928V126.363C197.75 126.714 197.464 127 197.113 127H175.018C174.666 127 174.38 126.714 174.38 126.363V125.928C174.38 124.55 175.501 123.429 176.879 123.429H195.251C196.629 123.429 197.75 124.55 197.75 125.928ZM187.851 118.624H184.279V104.365H187.851V118.624ZM210.195 96.9982C210.195 98.4115 209.046 99.5607 207.633 99.5607H164.497C163.084 99.5607 161.935 98.4111 161.935 96.9982V91.756H210.195V96.9982Z" fill="#0056A8"/>
</svg>
