<svg width="23" height="23" viewBox="0 0 23 23" fill="none" xmlns="http://www.w3.org/2000/svg">
<g clip-path="url(#clip0_3388_736)">
<path d="M1.42049 22.1748H21.5785C21.9074 22.1748 22.1742 21.908 22.1742 21.5791C22.1742 15.6931 17.3856 10.9044 11.4995 10.9044C5.61348 10.9044 0.824805 15.6931 0.824805 21.5791C0.824805 21.908 1.0916 22.1748 1.42049 22.1748ZM20.9644 20.9834H2.0346C2.34302 16.0306 6.47033 12.0958 11.4995 12.0958C16.5287 12.0958 20.656 16.0306 20.9644 20.9834Z" fill="white" stroke="white" stroke-width="0.2"/>
<path d="M8.31504 14.0885C8.31504 14.4174 8.58184 14.6842 8.91073 14.6842C9.23962 14.6842 9.50642 14.4174 9.50642 14.0885V1.42098C9.50642 1.09209 9.23962 0.825293 8.91073 0.825293C8.58184 0.825293 8.31504 1.09209 8.31504 1.42098V14.0885Z" fill="white" stroke="white" stroke-width="0.2"/>
<path d="M20.0221 2.69191L19.9767 2.60283C19.9764 2.60296 19.9759 2.60324 19.9751 2.60365C19.9338 2.62509 19.1719 3.02042 18.1693 3.22327C17.1452 3.43048 15.8915 3.43276 14.8939 2.6581C13.5934 1.64825 12.0696 1.52013 10.8617 1.64857C9.65355 1.77702 8.74904 2.16317 8.67176 2.1974L8.71226 2.28884L8.67225 2.19719C8.45545 2.29182 8.31504 2.50592 8.31504 2.7429V8.56886C8.31504 8.76957 8.41669 8.95676 8.58407 9.06679L8.58438 9.06699C8.75241 9.17656 8.96477 9.19494 9.14848 9.11493L9.10855 9.02325M20.0221 2.69191L19.9749 2.60376C20.1593 2.505 20.3816 2.50916 20.5624 2.6174C20.742 2.72487 20.8521 2.91914 20.8521 3.12854V8.95419C20.8521 9.1736 20.7316 9.37529 20.538 9.47891C20.435 9.53449 18.8619 10.3615 17.0551 10.3615C16.0982 10.3615 15.0712 10.1299 14.1632 9.42463C13.1552 8.64199 11.9147 8.55698 10.911 8.6748C9.90844 8.79247 9.15823 9.11075 9.14795 9.11516L9.10855 9.02325M20.0221 2.69191C20.0218 2.69207 20.0212 2.69238 20.0203 2.69284C19.9299 2.73969 16.8754 4.32335 14.8325 2.73709L8.639 8.98323C8.77906 9.07456 8.95591 9.08972 9.10855 9.02325M20.0221 2.69191C20.1757 2.60962 20.3606 2.61316 20.511 2.7032C20.6604 2.79259 20.7521 2.95427 20.7521 3.12854V8.95419C20.7521 9.13684 20.6517 9.30465 20.4907 9.39082C20.3926 9.44374 18.8371 10.2615 17.0551 10.2615C16.1144 10.2615 15.1107 10.034 14.2245 9.34564C12.1492 7.73432 9.13792 9.01066 9.10855 9.02325M17.6307 9.13387C16.7259 9.23451 15.7218 9.12643 14.8939 8.48375C13.8549 7.67698 12.6739 7.43327 11.6254 7.43327C10.7937 7.43327 10.0427 7.58676 9.50642 7.73693V3.15787C9.92223 3.02091 10.6555 2.8246 11.4852 2.80438C12.3619 2.78302 13.338 2.95831 14.1632 3.59898C16.0358 5.05364 18.413 4.49495 19.6607 4.03573V8.57657C19.2521 8.75426 18.4918 9.03809 17.6307 9.13387Z" fill="white" stroke="white" stroke-width="0.2"/>
<path d="M12.0055 16.9526C12.0055 18.3745 13.162 19.531 14.5839 19.531C16.0058 19.531 17.1624 18.3745 17.1624 16.9526C17.1624 15.5306 16.0058 14.3741 14.5839 14.3741C13.162 14.3741 12.0055 15.5306 12.0055 16.9526ZM13.1968 16.9526C13.1968 16.1878 13.8191 15.5655 14.5839 15.5655C15.3487 15.5655 15.971 16.1878 15.971 16.9526C15.971 17.7174 15.3487 18.3396 14.5839 18.3396C13.8191 18.3396 13.1968 17.7174 13.1968 16.9526Z" fill="white" stroke="white" stroke-width="0.2"/>
<path d="M5.06113 18.3467C5.06113 19.3762 5.89884 20.2136 6.92832 20.2136C7.95782 20.2136 8.79518 19.3762 8.79518 18.3467C8.79518 17.3172 7.95782 16.4798 6.92832 16.4798C5.89884 16.4798 5.06113 17.3172 5.06113 18.3467ZM6.25251 18.3467C6.25251 17.9744 6.5556 17.6712 6.92832 17.6712C7.30069 17.6712 7.6038 17.9743 7.6038 18.3467C7.6038 18.7191 7.30069 19.0222 6.92832 19.0222C6.5556 19.0222 6.25251 18.719 6.25251 18.3467Z" fill="white" stroke="white" stroke-width="0.2"/>
</g>
<defs>
<clipPath id="clip0_3388_736">
<rect width="23" height="23" fill="white"/>
</clipPath>
</defs>
</svg>
