<svg width="150" height="150" viewBox="0 0 150 150" fill="none" xmlns="http://www.w3.org/2000/svg">
<path d="M143.526 54.4385H128.658V35.7982C128.658 29.0308 123.362 23.4795 116.692 23.0532C118.984 20.6027 120.391 17.3156 120.391 13.7062C120.391 6.14904 114.234 0 106.667 0C99.099 0 92.9432 6.14904 92.9432 13.7062C92.9432 17.3156 94.3497 20.6027 96.6419 23.0532C89.9723 23.4795 84.676 29.0308 84.676 35.7982V54.4385H83.1573C82.5439 51.5674 79.985 49.4061 76.9295 49.4061H65.324V35.7982C65.324 29.0319 60.0277 23.4795 53.3581 23.0532C55.6503 20.6027 57.0568 17.3168 57.0568 13.7062C57.0568 6.14904 50.901 0 43.3331 0C35.7662 0 29.6093 6.14904 29.6093 13.7062C29.6093 17.3168 31.0169 20.6027 33.308 23.0532C26.6384 23.4795 21.3421 29.0319 21.3421 35.7982V54.4385H6.47392C2.92282 54.4385 0.0217438 57.289 0 60.8618V60.9041V132.331V132.372C0.0205994 135.857 2.84157 138.797 6.47392 138.797H21.3421V144.026C21.3421 146.769 23.576 149 26.3226 149H60.3436C63.0901 149 65.324 146.769 65.324 144.026V138.797H69.7208C70.9351 138.797 71.9193 137.814 71.9193 136.602C71.9193 135.39 70.9351 134.407 69.7208 134.407H65.324V128.165H84.676V134.407H79.9759C78.7617 134.407 77.7786 135.39 77.7786 136.601C77.7786 137.814 78.7617 138.796 79.9759 138.796H84.676V144.026C84.676 146.769 86.9099 149 89.6564 149H123.677C126.424 149 128.658 146.769 128.658 144.026V138.796H143.526C147.079 138.796 149.975 135.92 149.999 132.375C150 132.36 150 132.345 150 132.331C150 131.295 150 98.9996 150 97.356C150 96.1434 149.017 95.1616 147.803 95.1616C146.589 95.1616 145.605 96.1434 145.605 97.356V121.67V121.703C145.603 122.846 144.672 123.776 143.526 123.776H128.469C127.47 118.038 122.61 113.595 116.692 113.225C124.847 104.506 118.649 90.1726 106.667 90.1726C94.677 90.1726 88.4926 104.513 96.6419 113.225C90.9348 113.561 85.8925 117.86 84.8637 123.776H65.1352C64.1109 117.889 59.087 113.562 53.3581 113.225C61.5131 104.506 55.315 90.1726 43.3331 90.1726C31.3431 90.1726 25.1598 104.513 33.308 113.225C27.4979 113.588 22.5529 117.92 21.5309 123.776H6.47392C5.32608 123.776 4.39682 122.846 4.39453 121.705C4.39453 121.693 4.39453 121.681 4.39453 121.67V60.9338C4.39453 60.9224 4.39453 60.9121 4.39453 60.9007C4.39682 59.7509 5.32951 58.8285 6.47392 58.8285H40.7444V68.5755C40.7444 72.0821 43.6008 74.9349 47.1119 74.9349H55.4501V84.7608C55.4501 88.2673 58.3065 91.1201 61.8176 91.1201H76.3596C76.5678 91.1201 76.7624 91.2116 76.894 91.3727L84.478 100.641C86.3617 102.943 90.057 101.582 90.057 98.6533V91.1201H91.6351C95.1462 91.1201 98.0026 88.2673 98.0026 84.7608V71.9507C98.0026 68.4441 95.1462 65.5913 91.6351 65.5913H83.297V58.8285H143.526C144.672 58.8285 145.603 59.7589 145.605 60.8995V60.935V87.1141C145.605 88.3268 146.589 89.3097 147.803 89.3097C149.017 89.3097 150 88.3268 150 87.1141V60.9041C150 60.8904 150 60.8755 150 60.8618C149.977 57.3164 147.081 54.4385 143.526 54.4385ZM128.658 128.165H143.526C144.198 128.165 144.933 128.052 145.605 127.824V132.3V132.334C145.603 133.477 144.672 134.407 143.526 134.407H128.658V128.165ZM106.667 94.5615C111.811 94.5615 115.996 98.7413 115.996 103.879C115.996 109.016 111.811 113.196 106.667 113.196C101.523 113.196 97.3377 109.016 97.3377 103.879C97.3377 98.7413 101.523 94.5615 106.667 94.5615ZM89.0705 125.971C89.0705 121.346 92.8379 117.585 97.467 117.585H115.867C120.496 117.585 124.263 121.346 124.263 125.971V144.026C124.263 144.349 124 144.611 123.677 144.611H119.189V131.098C119.189 129.887 118.206 128.904 116.992 128.904C115.778 128.904 114.795 129.887 114.795 131.098V144.611H98.5394V131.098C98.5394 129.887 97.5563 128.904 96.3421 128.904C95.1279 128.904 94.1448 129.887 94.1448 131.098V144.611H89.6564C89.3326 144.611 89.0705 144.349 89.0705 144.026C89.0705 142.123 89.0705 128.313 89.0705 125.971ZM43.3331 94.5615C48.4772 94.5615 52.6623 98.7413 52.6623 103.879C52.6623 109.016 48.4772 113.196 43.3331 113.196C38.1889 113.196 34.0038 109.016 34.0038 103.879C34.0038 98.7413 38.1889 94.5615 43.3331 94.5615ZM25.7366 125.971C25.7366 121.346 29.504 117.585 34.1331 117.585H52.533C57.1632 117.585 60.9295 121.346 60.9295 125.971V144.026C60.9295 144.348 60.6674 144.611 60.3436 144.611H55.8552V131.098C55.8552 129.885 54.8721 128.902 53.6579 128.902C52.4448 128.902 51.4606 129.885 51.4606 131.098V144.611H35.2055V131.098C35.2055 129.885 34.2224 128.902 33.0082 128.902C31.7951 128.902 30.8109 129.885 30.8109 131.098V144.611H26.3226C25.9998 144.611 25.7366 144.348 25.7366 144.026C25.7366 142.124 25.7366 128.314 25.7366 125.971ZM6.47392 128.165H21.3421V134.407H6.47392C5.31693 134.407 4.39682 133.471 4.39453 132.336C4.39453 132.324 4.39453 132.313 4.39453 132.302V127.825C5.00908 128.033 5.76096 128.165 6.47392 128.165ZM43.3331 4.38891C48.4772 4.38891 52.6623 8.56866 52.6623 13.7062C52.6623 18.8437 48.4772 23.0235 43.3331 23.0235C38.1889 23.0235 34.0038 18.8437 34.0038 13.7062C34.0038 8.56866 38.1889 4.38891 43.3331 4.38891ZM40.884 54.4385H35.2055V40.9254C35.2055 39.7139 34.2224 38.731 33.0082 38.731C31.794 38.731 30.8109 39.7139 30.8109 40.9254V54.4385H25.7366V35.7982C25.7366 31.175 29.504 27.4124 34.1331 27.4124H52.533C57.1632 27.4124 60.9295 31.1738 60.9295 35.7982V48.0243L54.269 39.8853C52.3979 37.5995 48.6912 38.9241 48.6912 41.8729V49.4061H47.1119C44.0712 49.4061 41.5009 51.5548 40.884 54.4385ZM55.6068 70.546H47.1119C46.0236 70.546 45.1389 69.6613 45.1389 68.5755C45.1389 65.8668 45.1389 58.4982 45.1389 55.7666C45.1389 54.6796 46.0236 53.7961 47.1119 53.7961H49.6525C51.5453 53.7961 53.0857 52.2577 53.0857 50.3673V45.3761L58.4507 51.932C59.9144 53.7184 61.6196 53.7961 63.1268 53.7961H76.9295C78.0178 53.7961 78.9024 54.6796 78.9024 55.7666V65.5913H61.8176C58.8501 65.5913 56.2649 67.6578 55.6068 70.546ZM91.6351 69.9802C92.7235 69.9802 93.6081 70.8649 93.6081 71.9507V84.7596C93.6081 85.8466 92.7235 86.7301 91.6351 86.7301H89.0957C87.2017 86.7301 85.6625 88.2685 85.6625 90.1589V95.1513L80.2963 88.5942C79.3259 87.4101 77.8919 86.7301 76.3596 86.7301H61.8176C60.7292 86.7301 59.8446 85.8466 59.8446 84.7596C59.8446 83.3904 59.8446 73.3153 59.8446 71.9507C59.8446 70.8649 60.7304 69.9802 61.8176 69.9802H91.6351ZM106.667 4.38891C111.811 4.38891 115.996 8.56866 115.996 13.7062C115.996 18.8437 111.811 23.0235 106.667 23.0235C101.523 23.0235 97.3377 18.8437 97.3377 13.7062C97.3377 8.56866 101.523 4.38891 106.667 4.38891ZM124.263 54.4385H119.189V40.9254C119.189 39.7139 118.206 38.731 116.992 38.731C115.778 38.731 114.795 39.7139 114.795 40.9254V54.4385H98.5394V40.9254C98.5394 39.7139 97.5563 38.731 96.3421 38.731C95.1279 38.731 94.1448 39.7139 94.1448 40.9254V54.4385H89.0705V35.7982C89.0705 31.175 92.8368 27.4124 97.467 27.4124H115.867C120.497 27.4124 124.263 31.1738 124.263 35.7982V54.4385Z" fill="#0056A8"/>
</svg>
