<svg width="39" height="40" viewBox="0 0 39 40" fill="none" xmlns="http://www.w3.org/2000/svg">
<g clip-path="url(#clip0_3388_1366)">
<path d="M4.13232 27.0591L5.16147 26.3813V33.2168C4.80201 32.8275 4.45858 32.4234 4.13232 32.0056V27.0591Z" fill="white"/>
<path d="M6.05566 25.7922L7.08596 25.1145V35.0385C6.73222 34.7466 6.38879 34.4409 6.05566 34.125V25.7922Z" fill="white"/>
<path d="M8.55743 24.1463L9.00962 23.8486V36.4411C8.65817 36.2167 8.31589 35.9809 7.98047 35.7348V24.5263L8.55743 24.1463Z" fill="white"/>
<path d="M18.6011 2.93018L20.0103 3.56667V39.493C19.8409 39.4975 19.6703 39.4998 19.4997 39.4998C19.1986 39.4998 18.8987 39.493 18.6011 39.4792V2.93018Z" fill="white"/>
<path d="M28.231 17.8315L29.536 18.4875V36.7225C29.1113 36.9778 28.6763 37.2171 28.231 37.4403V17.8315Z" fill="white"/>
<path d="M30.6694 19.0564L31.9745 19.7123V34.9881C31.5543 35.3384 31.1193 35.6716 30.6694 35.9852V19.0564Z" fill="white"/>
<path d="M33.1079 20.2825L34.4129 20.9384V32.5636C34.0008 33.0524 33.5658 33.5217 33.1079 33.9682V20.2825Z" fill="white"/>
<path d="M39 20C39 9.23115 30.27 0.5 19.5 0.5C8.73001 0.5 0 9.23115 0 20C0 24.0353 1.22605 27.7844 3.32555 30.8959V26.7312L8.55715 23.2042L9.18677 22.7806L9.8164 22.3559L12.2376 24.2002L14.1436 25.6529V38.7548C14.558 38.8738 14.977 38.978 15.4029 39.0684V25.029L14.906 24.6512L12.2376 22.6181V5.26911L17.4715 1.28188L26.3869 5.26911V15.0718L25.2742 15.92V5.94452L23.865 5.30803V16.9938L23.1026 17.5742L22.6424 17.9245V4.75511L21.2332 4.11862V39.4244C21.7071 39.3821 22.1776 39.3237 22.6412 39.2482V19.296L24.0505 18.2222L25.1632 17.375L26.9685 15.999L27.5981 16.315L28.2277 16.6321L35.6744 20.3743V30.8959C37.774 27.7844 39 24.0353 39 20ZM5.37126 20.8128C4.61228 20.8128 4.01814 21.4069 4.01814 22.1659C4.01814 22.2254 4.00326 22.2415 3.94373 22.2415C3.8842 22.2415 3.86818 22.2254 3.86818 22.1659C3.86818 21.4069 3.27404 20.8128 2.51506 20.8128C2.45553 20.8128 2.4395 20.7968 2.4395 20.7372C2.4395 20.6777 2.45553 20.6617 2.51506 20.6617C3.27404 20.6617 3.86818 20.0675 3.86818 19.3086C3.86818 19.249 3.8842 19.233 3.94373 19.233C4.00326 19.233 4.01814 19.249 4.01814 19.3086C4.01814 20.0675 4.61228 20.6617 5.37126 20.6617C5.43079 20.6617 5.44681 20.6777 5.44681 20.7372C5.44681 20.7968 5.43079 20.8128 5.37126 20.8128ZM5.97112 13.0661C5.21213 13.0661 4.618 13.6603 4.618 14.4192C4.618 14.4788 4.60197 14.4948 4.54359 14.4948C4.48521 14.4948 4.46803 14.4776 4.46803 14.4192C4.46803 13.6603 3.8739 13.0661 3.11492 13.0661C3.05539 13.0661 3.03936 13.049 3.03936 12.9906C3.03936 12.9322 3.05539 12.915 3.11492 12.915C3.8739 12.915 4.46803 12.3197 4.46803 11.5619C4.46803 11.5024 4.48406 11.4864 4.54359 11.4864C4.60312 11.4864 4.618 11.5012 4.618 11.5619C4.618 12.3197 5.21213 12.915 5.97112 12.915C6.03064 12.915 6.04667 12.9311 6.04667 12.9906C6.04667 13.0501 6.03064 13.0661 5.97112 13.0661ZM10.6029 16.766C9.84502 16.766 9.24974 17.3613 9.24974 18.1191C9.24974 18.1798 9.23485 18.1947 9.17533 18.1947C9.1158 18.1947 9.09977 18.1787 9.09977 18.1191C9.09977 17.3613 8.50564 16.766 7.74665 16.766C7.68827 16.766 7.6711 16.75 7.6711 16.6905C7.6711 16.6309 7.68827 16.6149 7.74665 16.6149C8.50564 16.6149 9.09977 16.0208 9.09977 15.2618C9.09977 15.2034 9.11694 15.1862 9.17533 15.1862C9.23371 15.1862 9.24974 15.2023 9.24974 15.2618C9.24974 16.0208 9.84502 16.6149 10.6029 16.6149C10.6624 16.6149 10.6784 16.6321 10.6784 16.6905C10.6784 16.7489 10.6624 16.766 10.6029 16.766ZM10.6029 8.48477C9.84502 8.48477 9.24974 9.0789 9.24974 9.83788C9.24974 9.89741 9.23485 9.91344 9.17533 9.91344C9.1158 9.91344 9.09977 9.89741 9.09977 9.83788C9.09977 9.0789 8.50564 8.48477 7.74665 8.48477C7.68827 8.48477 7.6711 8.46874 7.6711 8.40921C7.6711 8.34968 7.68827 8.33366 7.74665 8.33366C8.50564 8.33366 9.09977 7.73952 9.09977 6.98054C9.09977 6.92101 9.11694 6.90498 9.17533 6.90498C9.23371 6.90498 9.24974 6.91987 9.24974 6.98054C9.24974 7.73952 9.84502 8.33366 10.6029 8.33366C10.6624 8.33366 10.6784 8.34968 10.6784 8.40921C10.6784 8.46874 10.6624 8.48477 10.6029 8.48477ZM31.7227 13.8675C30.9649 13.8675 30.3696 14.4616 30.3696 15.2206C30.3696 15.2801 30.3547 15.2961 30.2952 15.2961C30.2356 15.2961 30.2196 15.2801 30.2196 15.2206C30.2196 14.4616 29.6255 13.8675 28.8665 13.8675C28.8081 13.8675 28.7909 13.8514 28.7909 13.7919C28.7909 13.7324 28.8081 13.7164 28.8665 13.7164C29.6255 13.7164 30.2196 13.1222 30.2196 12.3632C30.2196 12.3037 30.2368 12.2877 30.2952 12.2877C30.3536 12.2877 30.3696 12.3026 30.3696 12.3632C30.3696 13.1222 30.9649 13.7164 31.7227 13.7164C31.7822 13.7164 31.7983 13.7324 31.7983 13.7919C31.7983 13.8514 31.7822 13.8675 31.7227 13.8675ZM32.2047 7.96275C31.4457 7.96275 30.8515 8.55689 30.8515 9.31587C30.8515 9.37654 30.8355 9.39142 30.7771 9.39142C30.7187 9.39142 30.7016 9.3754 30.7016 9.31587C30.7016 8.55689 30.1074 7.96275 29.3485 7.96275C29.2889 7.96275 29.2729 7.94672 29.2729 7.8872C29.2729 7.82767 29.2889 7.81164 29.3485 7.81164C30.1074 7.81164 30.7016 7.21751 30.7016 6.45852C30.7016 6.399 30.7176 6.38297 30.7771 6.38297C30.8367 6.38297 30.8515 6.399 30.8515 6.45852C30.8515 7.21751 31.4457 7.81164 32.2047 7.81164C32.2642 7.81164 32.2802 7.82767 32.2802 7.8872C32.2802 7.94672 32.2642 7.96275 32.2047 7.96275ZM35.6 16.908C35.6 16.149 35.0059 15.5549 34.2469 15.5549C34.1874 15.5549 34.1714 15.5388 34.1714 15.4793C34.1714 15.4198 34.1874 15.4038 34.2469 15.4038C35.0059 15.4038 35.6 14.8096 35.6 14.0506C35.6 13.9911 35.6161 13.9751 35.6756 13.9751C35.7351 13.9751 35.75 13.9911 35.75 14.0506C35.75 14.8096 36.3441 15.4038 37.1031 15.4038C37.1626 15.4038 37.1787 15.4198 37.1787 15.4793C37.1787 15.5388 37.1626 15.5549 37.1031 15.5549C36.3441 15.5549 35.75 16.149 35.75 16.908C35.75 16.9687 35.734 16.9835 35.6756 16.9835C35.6172 16.9835 35.6 16.9675 35.6 16.908Z" fill="white"/>
</g>
<defs>
<clipPath id="clip0_3388_1366">
<rect width="39" height="39" fill="white" transform="translate(0 0.5)"/>
</clipPath>
</defs>
</svg>
