<svg width="38" height="38" viewBox="0 0 38 38" fill="none" xmlns="http://www.w3.org/2000/svg">
<path d="M1.18747 11.8749H36.8124C37.468 11.8749 37.9999 11.3429 37.9999 10.6875C37.9999 10.0319 37.4679 9.5 36.8124 9.5H1.18747C0.531943 9.5 0 10.032 0 10.6875C0 11.3429 0.532041 11.8749 1.18747 11.8749Z" fill="white"/>
<path d="M36.8124 17.8125H1.18747C0.531943 17.8125 0 18.3445 0 19C0 19.6554 0.532041 20.1874 1.18747 20.1874H36.8124C37.468 20.1874 37.9999 19.6554 37.9999 19C37.9999 18.3445 37.468 17.8125 36.8124 17.8125Z" fill="white"/>
<path d="M36.8124 26.125H13.0625C12.4069 26.125 11.875 26.657 11.875 27.3125C11.875 27.968 12.407 28.4999 13.0625 28.4999H36.8124C37.468 28.4999 37.9999 27.9679 37.9999 27.3125C38 26.6569 37.468 26.125 36.8124 26.125Z" fill="white"/>
</svg>
