<svg width="194" height="150" viewBox="0 0 194 150" fill="none" xmlns="http://www.w3.org/2000/svg">
<path d="M140.019 12.7172L138.256 14.4806L140.019 12.7172C137.538 10.2359 133.517 10.2359 131.036 12.7172L132.803 14.4849L131.036 12.7172L123.33 20.4226C120.849 22.9039 120.849 26.9249 123.33 29.4062C125.811 31.8875 129.832 31.8875 132.314 29.4062L140.019 21.7007C142.5 19.2194 142.5 15.1985 140.019 12.7172ZM109.932 107.669L108.439 106.558L106.946 107.67C104.132 109.765 100.715 111.027 97 111.027C93.2852 111.027 89.8676 109.765 87.0544 107.67L85.5614 106.558L84.0682 107.669C78.7288 111.645 75.2363 118.21 75.2363 125.342V132.791C75.2363 136.302 78.0797 139.144 81.589 139.144H112.411C115.92 139.144 118.764 136.302 118.764 132.791V125.342C118.764 118.21 115.271 111.645 109.932 107.669ZM63.6989 107.669L62.2057 106.558L60.7127 107.67C57.8996 109.765 54.4819 111.027 50.7671 111.027C47.0524 111.027 43.6347 109.765 40.8216 107.67L39.3285 106.558L37.8353 107.669C32.5538 111.602 28.7466 118.142 28.7466 125.342V132.791C28.7466 136.505 32.0588 139.144 35.3562 139.144H66.1781C69.6874 139.144 72.5308 136.302 72.5308 132.791V125.342C72.5308 118.21 69.0383 111.645 63.6989 107.669ZM156.165 107.669L154.671 106.558L153.178 107.67C150.365 109.765 146.948 111.027 143.233 111.027C139.518 111.027 136.1 109.765 133.287 107.67L131.794 106.558L130.301 107.669C124.962 111.645 121.469 118.21 121.469 125.342V132.791C121.469 136.302 124.313 139.144 127.822 139.144H158.901C162.41 139.144 165.253 136.302 165.253 132.791V125.342C165.253 118.142 161.446 111.602 156.165 107.669ZM36.7089 94.2637C36.7089 102.018 43.0133 108.322 50.7671 108.322C58.5209 108.322 64.8253 102.018 64.8253 94.2637C64.8253 86.5099 58.5209 80.2055 50.7671 80.2055C43.0133 80.2055 36.7089 86.5099 36.7089 94.2637ZM97 108.322C104.754 108.322 111.058 102.018 111.058 94.2637C111.058 86.5099 104.754 80.2055 97 80.2055C89.2462 80.2055 82.9418 86.5099 82.9418 94.2637C82.9418 102.018 89.2462 108.322 97 108.322ZM143.233 108.322C150.987 108.322 157.291 102.018 157.291 94.2637C157.291 86.5099 150.987 80.2055 143.233 80.2055C135.479 80.2055 129.175 86.5099 129.175 94.2637C129.175 102.018 135.479 108.322 143.233 108.322ZM97 10.8562C84.9982 10.8562 75.2363 20.6181 75.2363 32.6199C75.2363 39.0624 78.1178 45.1364 82.9418 49.2315V55.7363C82.9418 59.2475 85.7852 62.0891 89.2945 62.0891H104.705C108.215 62.0891 111.058 59.2475 111.058 55.7363V49.2315C115.882 45.1364 118.764 39.0624 118.764 32.6199C118.764 20.6181 109.002 10.8562 97 10.8562ZM104.705 77.5C108.215 77.5 111.058 74.6585 111.058 71.1473C111.058 67.6375 108.215 64.7946 104.705 64.7946H89.2945C85.7848 64.7946 82.9418 67.6375 82.9418 71.1473C82.9418 74.6585 85.7852 77.5 89.2945 77.5H104.705ZM143.233 46.6781C146.742 46.6781 149.586 43.8366 149.586 40.3254C149.586 36.8156 146.743 33.9726 143.233 33.9726H135.527C132.018 33.9726 129.175 36.8156 129.175 40.3254C129.175 43.8366 132.018 46.6781 135.527 46.6781H143.233ZM123.33 51.2446C120.849 53.7258 120.849 57.7468 123.33 60.2281L131.036 67.9336C133.517 70.4149 137.538 70.4149 140.019 67.9336C142.5 65.4523 142.5 61.4313 140.019 58.95L132.314 51.2446C129.832 48.7633 125.811 48.7633 123.33 51.2446ZM58.4726 46.6781C61.9819 46.6781 64.8253 43.8366 64.8253 40.3254C64.8253 36.8156 61.9824 33.9726 58.4726 33.9726H50.7671C47.2574 33.9726 44.4144 36.8156 44.4144 40.3254C44.4144 43.8366 47.2578 46.6781 50.7671 46.6781H58.4726ZM70.6699 51.2446C68.1886 48.7633 64.1676 48.7633 61.6863 51.2446L53.9808 58.95C51.4995 61.4313 51.4995 65.4523 53.9808 67.9336C56.4621 70.4149 60.4831 70.4149 62.9644 67.9336L70.6699 60.2281C73.1511 57.7468 73.1511 53.7258 70.6699 51.2446ZM53.9808 12.7172C51.4995 15.1985 51.4995 19.2194 53.9808 21.7007L61.6863 29.4062C64.1676 31.8875 68.1886 31.8875 70.6699 29.4062C73.1511 26.9249 73.1511 22.9039 70.6699 20.4226L62.9644 12.7172C60.4831 10.2359 56.4621 10.2359 53.9808 12.7172Z" stroke="white" stroke-width="5"/>
</svg>
