<svg width="266" height="151" viewBox="0 0 266 151" fill="none" xmlns="http://www.w3.org/2000/svg">
<path d="M209.016 68.0046C208.613 68.0046 208.219 68.0459 207.838 68.1225V50.9236C207.838 45.7717 203.648 41.5801 198.498 41.5801H197.136C195.809 41.5801 194.734 42.6557 194.734 43.9824C194.734 45.3092 195.809 46.3848 197.136 46.3848H198.498C200.999 46.3848 203.033 48.421 203.033 50.9236L203.033 86.9517H169.099V50.9236C169.099 48.421 171.134 46.3848 173.635 46.3848H186.207C187.534 46.3848 188.609 45.3092 188.609 43.9824C188.609 42.6557 187.534 41.5801 186.207 41.5801H179.817V30.0251C179.817 24.8748 175.627 20.6848 170.477 20.6848H145.614C140.464 20.6848 136.274 24.8748 136.274 30.0251V41.5817H129.726V30.0251C129.726 24.8748 125.536 20.6848 120.386 20.6848H95.5234C90.3731 20.6848 86.1831 24.8748 86.1831 30.0251V41.5801H67.5025C62.3522 41.5801 58.1622 45.7717 58.1622 50.9236V68.1225C57.781 68.0459 57.3874 68.0046 56.9838 68.0046C53.6842 68.0046 51 70.6888 51 73.9883V96.9983C51 101.061 54.305 104.365 58.3672 104.365H73.3444V118.624H70.7489C66.7216 118.624 63.4451 121.9 63.4451 125.928V126.363C63.4451 129.364 65.8865 131.805 68.8872 131.805H90.9821C93.9831 131.805 96.4242 129.363 96.4242 126.363V125.928C96.4242 121.9 93.1477 118.624 89.1204 118.624H86.5249V104.365H101.502C103.413 104.365 105.156 103.634 106.467 102.436C107.778 103.634 109.521 104.365 111.432 104.365H126.409V118.625H123.813C119.786 118.625 116.51 121.901 116.51 125.928V126.363C116.51 129.364 118.951 131.805 121.952 131.805H127.474C128.801 131.805 129.876 130.73 129.876 129.403C129.876 128.076 128.801 127.001 127.474 127.001H121.952C121.6 127.001 121.314 126.715 121.314 126.363V125.928C121.314 124.55 122.435 123.429 123.813 123.429H142.186C143.564 123.429 144.684 124.55 144.684 125.928V126.363C144.684 126.715 144.398 127.001 144.047 127.001H138.525C137.198 127.001 136.122 128.076 136.122 129.403C136.122 130.73 137.198 131.805 138.525 131.805H144.047C147.048 131.805 149.489 129.364 149.489 126.363V125.928C149.489 121.901 146.213 118.625 142.186 118.625H139.59V104.365H154.567C156.478 104.365 158.221 103.634 159.532 102.436C160.843 103.634 162.586 104.365 164.497 104.365H179.474V118.624H176.878C172.851 118.624 169.575 121.9 169.575 125.928V126.363C169.575 129.364 172.016 131.805 175.017 131.805H197.112C200.113 131.805 202.554 129.363 202.554 126.363V125.928C202.554 121.9 199.277 118.624 195.25 118.624H192.654V104.365H207.633C211.695 104.365 215 101.061 215 96.9983V73.9883C215 70.6888 212.316 68.0046 209.016 68.0046ZM209.016 72.8093C209.667 72.8093 210.195 73.3381 210.195 73.9883V86.9514H207.838V73.9819C207.841 73.3349 208.368 72.8093 209.016 72.8093ZM116.032 86.9514V50.922C116.032 48.4207 118.067 46.3857 120.569 46.3857H145.431C147.932 46.3857 149.967 48.4207 149.967 50.922V86.9514H116.032ZM108.87 86.9514V73.9883C108.87 73.3384 109.399 72.8093 110.049 72.8093C110.699 72.8093 111.228 73.3381 111.228 73.9883V86.9514H108.87ZM104.065 86.9514H101.707V73.9883C101.707 73.3384 102.236 72.8093 102.886 72.8093C103.536 72.8093 104.065 73.3381 104.065 73.9883V86.9514ZM154.772 73.9883C154.772 73.3384 155.301 72.8093 155.951 72.8093C156.602 72.8093 157.13 73.3381 157.13 73.9883V86.9514H154.772V73.9883ZM161.935 73.9883C161.935 73.3384 162.464 72.8093 163.114 72.8093C163.764 72.8093 164.293 73.3381 164.293 73.9883V86.9514H161.935V73.9883ZM141.078 30.0248C141.078 27.5238 143.113 25.4892 145.614 25.4892H170.477C172.978 25.4892 175.012 27.5238 175.012 30.0248V41.5798H173.635C168.485 41.5798 164.295 45.7714 164.295 50.9233V68.1228C163.913 68.0459 163.518 68.0046 163.114 68.0046C161.77 68.0046 160.532 68.4553 159.532 69.2061C158.532 68.4553 157.295 68.0046 155.951 68.0046C155.547 68.0046 155.153 68.0459 154.772 68.1225V50.922C154.772 45.7714 150.582 41.581 145.431 41.581H141.078V30.0248ZM67.5025 46.3844H92.3652C94.8662 46.3844 96.9008 48.4207 96.9008 50.9233V50.9873C96.9008 52.3141 97.9764 53.3897 99.3031 53.3897C100.63 53.3897 101.705 52.3141 101.705 50.9873V50.9233C101.705 45.7714 97.5155 41.5798 92.3652 41.5798H90.9878V30.0248C90.9878 27.5238 93.0224 25.4892 95.5234 25.4892H120.386C122.887 25.4892 124.922 27.5238 124.922 30.0248V41.5814H120.569C115.418 41.5814 111.228 45.7717 111.228 50.9223V68.1228C110.846 68.0462 110.452 68.0049 110.049 68.0049C108.705 68.0049 107.467 68.4556 106.467 69.2064C105.467 68.4556 104.23 68.0049 102.886 68.0049C102.482 68.0049 102.087 68.0462 101.705 68.1231V62.1986C101.705 60.8719 100.63 59.7963 99.3028 59.7963C97.9761 59.7963 96.9005 60.8719 96.9005 62.1986V86.9517H62.9675L62.9669 50.9236C62.9669 48.4207 65.0015 46.3844 67.5025 46.3844ZM55.8047 73.9883C55.8047 73.3384 56.3335 72.8093 56.9838 72.8093C57.6318 72.8093 58.1587 73.3349 58.1622 73.9819V86.9514H55.8047V73.9883ZM91.6198 125.928V126.363C91.6198 126.714 91.3338 127 90.9824 127H68.8875C68.5358 127 68.2501 126.714 68.2501 126.363V125.928C68.2501 124.55 69.3712 123.429 70.7492 123.429H89.121C90.4987 123.429 91.6198 124.55 91.6198 125.928ZM81.7205 118.624H78.1491V104.365H81.7205V118.624ZM101.503 99.5608H58.3672C56.954 99.5608 55.8047 98.4112 55.8047 96.9983V91.7561H104.065V96.9983C104.065 98.4112 102.916 99.5608 101.503 99.5608ZM134.786 118.624H131.215V104.365H134.786V118.624ZM154.568 99.5608H111.432C110.019 99.5608 108.87 98.4112 108.87 96.9983V91.7561H157.13V96.9983C157.13 98.4112 155.981 99.5608 154.568 99.5608ZM197.75 125.928V126.363C197.75 126.714 197.464 127 197.113 127H175.018C174.666 127 174.38 126.714 174.38 126.363V125.928C174.38 124.55 175.501 123.429 176.879 123.429H195.251C196.629 123.429 197.75 124.55 197.75 125.928ZM187.851 118.624H184.279V104.365H187.851V118.624ZM210.195 96.9983C210.195 98.4115 209.046 99.5608 207.633 99.5608H164.497C163.084 99.5608 161.935 98.4112 161.935 96.9983V91.7561H210.195V96.9983Z" fill="white"/>
</svg>
