<svg width="150" height="151" viewBox="0 0 150 151" fill="none" xmlns="http://www.w3.org/2000/svg">
<path d="M143.526 54.9385H128.658V36.2982C128.658 29.5308 123.362 23.9795 116.692 23.5532C118.984 21.1027 120.391 17.8156 120.391 14.2062C120.391 6.64904 114.234 0.5 106.667 0.5C99.099 0.5 92.9432 6.64904 92.9432 14.2062C92.9432 17.8156 94.3497 21.1027 96.6419 23.5532C89.9723 23.9795 84.676 29.5308 84.676 36.2982V54.9385H83.1573C82.5439 52.0674 79.985 49.9061 76.9295 49.9061H65.324V36.2982C65.324 29.5319 60.0277 23.9795 53.3581 23.5532C55.6503 21.1027 57.0568 17.8168 57.0568 14.2062C57.0568 6.64904 50.901 0.5 43.3331 0.5C35.7662 0.5 29.6093 6.64904 29.6093 14.2062C29.6093 17.8168 31.0169 21.1027 33.308 23.5532C26.6384 23.9795 21.3421 29.5319 21.3421 36.2982V54.9385H6.47392C2.92282 54.9385 0.0217438 57.789 0 61.3618V61.4041V132.831V132.872C0.0205994 136.357 2.84157 139.297 6.47392 139.297H21.3421V144.526C21.3421 147.269 23.576 149.5 26.3226 149.5H60.3436C63.0901 149.5 65.324 147.269 65.324 144.526V139.297H69.7208C70.9351 139.297 71.9193 138.314 71.9193 137.102C71.9193 135.89 70.9351 134.907 69.7208 134.907H65.324V128.665H84.676V134.907H79.9759C78.7617 134.907 77.7786 135.89 77.7786 137.101C77.7786 138.314 78.7617 139.296 79.9759 139.296H84.676V144.526C84.676 147.269 86.9099 149.5 89.6564 149.5H123.677C126.424 149.5 128.658 147.269 128.658 144.526V139.296H143.526C147.079 139.296 149.975 136.42 149.999 132.875C150 132.86 150 132.845 150 132.831C150 131.795 150 99.4996 150 97.856C150 96.6434 149.017 95.6616 147.803 95.6616C146.589 95.6616 145.605 96.6434 145.605 97.856V122.17V122.203C145.603 123.346 144.672 124.276 143.526 124.276H128.469C127.47 118.538 122.61 114.095 116.692 113.725C124.847 105.006 118.649 90.6726 106.667 90.6726C94.677 90.6726 88.4926 105.013 96.6419 113.725C90.9348 114.061 85.8925 118.36 84.8637 124.276H65.1352C64.1109 118.389 59.087 114.062 53.3581 113.725C61.5131 105.006 55.315 90.6726 43.3331 90.6726C31.3431 90.6726 25.1598 105.013 33.308 113.725C27.4979 114.088 22.5529 118.42 21.5309 124.276H6.47392C5.32608 124.276 4.39682 123.346 4.39453 122.205C4.39453 122.193 4.39453 122.181 4.39453 122.17V61.4338C4.39453 61.4224 4.39453 61.4121 4.39453 61.4007C4.39682 60.2509 5.32951 59.3285 6.47392 59.3285H40.7444V69.0755C40.7444 72.5821 43.6008 75.4349 47.1119 75.4349H55.4501V85.2608C55.4501 88.7673 58.3065 91.6201 61.8176 91.6201H76.3596C76.5678 91.6201 76.7624 91.7116 76.894 91.8727L84.478 101.141C86.3617 103.443 90.057 102.082 90.057 99.1533V91.6201H91.6351C95.1462 91.6201 98.0026 88.7673 98.0026 85.2608V72.4507C98.0026 68.9441 95.1462 66.0913 91.6351 66.0913H83.297V59.3285H143.526C144.672 59.3285 145.603 60.2589 145.605 61.3995V61.435V87.6141C145.605 88.8268 146.589 89.8097 147.803 89.8097C149.017 89.8097 150 88.8268 150 87.6141V61.4041C150 61.3904 150 61.3755 150 61.3618C149.977 57.8164 147.081 54.9385 143.526 54.9385ZM128.658 128.665H143.526C144.198 128.665 144.933 128.552 145.605 128.324V132.8V132.834C145.603 133.977 144.672 134.907 143.526 134.907H128.658V128.665ZM106.667 95.0615C111.811 95.0615 115.996 99.2413 115.996 104.379C115.996 109.516 111.811 113.696 106.667 113.696C101.523 113.696 97.3377 109.516 97.3377 104.379C97.3377 99.2413 101.523 95.0615 106.667 95.0615ZM89.0705 126.471C89.0705 121.846 92.8379 118.085 97.467 118.085H115.867C120.496 118.085 124.263 121.846 124.263 126.471V144.526C124.263 144.849 124 145.111 123.677 145.111H119.189V131.598C119.189 130.387 118.206 129.404 116.992 129.404C115.778 129.404 114.795 130.387 114.795 131.598V145.111H98.5394V131.598C98.5394 130.387 97.5563 129.404 96.3421 129.404C95.1279 129.404 94.1448 130.387 94.1448 131.598V145.111H89.6564C89.3326 145.111 89.0705 144.849 89.0705 144.526C89.0705 142.623 89.0705 128.813 89.0705 126.471ZM43.3331 95.0615C48.4772 95.0615 52.6623 99.2413 52.6623 104.379C52.6623 109.516 48.4772 113.696 43.3331 113.696C38.1889 113.696 34.0038 109.516 34.0038 104.379C34.0038 99.2413 38.1889 95.0615 43.3331 95.0615ZM25.7366 126.471C25.7366 121.846 29.504 118.085 34.1331 118.085H52.533C57.1632 118.085 60.9295 121.846 60.9295 126.471V144.526C60.9295 144.848 60.6674 145.111 60.3436 145.111H55.8552V131.598C55.8552 130.385 54.8721 129.402 53.6579 129.402C52.4448 129.402 51.4606 130.385 51.4606 131.598V145.111H35.2055V131.598C35.2055 130.385 34.2224 129.402 33.0082 129.402C31.7951 129.402 30.8109 130.385 30.8109 131.598V145.111H26.3226C25.9998 145.111 25.7366 144.848 25.7366 144.526C25.7366 142.624 25.7366 128.814 25.7366 126.471ZM6.47392 128.665H21.3421V134.907H6.47392C5.31693 134.907 4.39682 133.971 4.39453 132.836C4.39453 132.824 4.39453 132.813 4.39453 132.802V128.325C5.00908 128.533 5.76096 128.665 6.47392 128.665ZM43.3331 4.88891C48.4772 4.88891 52.6623 9.06866 52.6623 14.2062C52.6623 19.3437 48.4772 23.5235 43.3331 23.5235C38.1889 23.5235 34.0038 19.3437 34.0038 14.2062C34.0038 9.06866 38.1889 4.88891 43.3331 4.88891ZM40.884 54.9385H35.2055V41.4254C35.2055 40.2139 34.2224 39.231 33.0082 39.231C31.794 39.231 30.8109 40.2139 30.8109 41.4254V54.9385H25.7366V36.2982C25.7366 31.675 29.504 27.9124 34.1331 27.9124H52.533C57.1632 27.9124 60.9295 31.6738 60.9295 36.2982V48.5243L54.269 40.3853C52.3979 38.0995 48.6912 39.4241 48.6912 42.3729V49.9061H47.1119C44.0712 49.9061 41.5009 52.0548 40.884 54.9385ZM55.6068 71.046H47.1119C46.0236 71.046 45.1389 70.1613 45.1389 69.0755C45.1389 66.3668 45.1389 58.9982 45.1389 56.2666C45.1389 55.1796 46.0236 54.2961 47.1119 54.2961H49.6525C51.5453 54.2961 53.0857 52.7577 53.0857 50.8673V45.8761L58.4507 52.432C59.9144 54.2184 61.6196 54.2961 63.1268 54.2961H76.9295C78.0178 54.2961 78.9024 55.1796 78.9024 56.2666V66.0913H61.8176C58.8501 66.0913 56.2649 68.1578 55.6068 71.046ZM91.6351 70.4802C92.7235 70.4802 93.6081 71.3649 93.6081 72.4507V85.2596C93.6081 86.3466 92.7235 87.2301 91.6351 87.2301H89.0957C87.2017 87.2301 85.6625 88.7685 85.6625 90.6589V95.6513L80.2963 89.0942C79.3259 87.9101 77.8919 87.2301 76.3596 87.2301H61.8176C60.7292 87.2301 59.8446 86.3466 59.8446 85.2596C59.8446 83.8904 59.8446 73.8153 59.8446 72.4507C59.8446 71.3649 60.7304 70.4802 61.8176 70.4802H91.6351ZM106.667 4.88891C111.811 4.88891 115.996 9.06866 115.996 14.2062C115.996 19.3437 111.811 23.5235 106.667 23.5235C101.523 23.5235 97.3377 19.3437 97.3377 14.2062C97.3377 9.06866 101.523 4.88891 106.667 4.88891ZM124.263 54.9385H119.189V41.4254C119.189 40.2139 118.206 39.231 116.992 39.231C115.778 39.231 114.795 40.2139 114.795 41.4254V54.9385H98.5394V41.4254C98.5394 40.2139 97.5563 39.231 96.3421 39.231C95.1279 39.231 94.1448 40.2139 94.1448 41.4254V54.9385H89.0705V36.2982C89.0705 31.675 92.8368 27.9124 97.467 27.9124H115.867C120.497 27.9124 124.263 31.6738 124.263 36.2982V54.9385Z" fill="white"/>
</svg>
