<svg width="96" height="101" viewBox="0 0 96 101" fill="none" xmlns="http://www.w3.org/2000/svg">
<path d="M77.0779 27.604V76.8305C77.0781 78.4786 76.4297 80.0605 75.2729 81.2345C74.1161 82.4084 72.5439 83.0799 70.896 83.104H9.67195C8.00811 83.104 6.41242 82.443 5.23591 81.2665C4.0594 80.09 3.39844 78.4943 3.39844 76.8305V27.604H77.0779Z" stroke="#34A1B9" stroke-width="1.9802" stroke-linecap="round" stroke-linejoin="round"/>
<path d="M77.0781 15.6522V27.6039H3.39862V15.6522C3.38648 14.8207 3.53978 13.995 3.84962 13.2233C4.15945 12.4516 4.61963 11.7491 5.20339 11.1568C5.78715 10.5646 6.48285 10.0942 7.25002 9.77326C8.01719 9.45227 8.84052 9.28702 9.67213 9.28711H70.8961C71.7218 9.29298 72.5381 9.46298 73.2974 9.78721C74.0568 10.1114 74.7441 10.5835 75.3193 11.1758C75.8946 11.7681 76.3463 12.4689 76.6483 13.2374C76.9502 14.0059 77.0963 14.8267 77.0781 15.6522Z" fill="#34A1B9" stroke="#34A1B9" stroke-width="1.9802" stroke-linecap="round" stroke-linejoin="round"/>
<path d="M18.9678 15.469V2.41821" stroke="#34A1B9" stroke-width="1.9802" stroke-linecap="round" stroke-linejoin="round"/>
<path d="M61.5542 15.469V2.41821" stroke="#34A1B9" stroke-width="1.9802" stroke-linecap="round" stroke-linejoin="round"/>
<path d="M40.3011 68.689C48.3587 68.689 54.8907 62.157 54.8907 54.0994C54.8907 46.0418 48.3587 39.5098 40.3011 39.5098C32.2434 39.5098 25.7114 46.0418 25.7114 54.0994C25.7114 62.157 32.2434 68.689 40.3011 68.689Z" fill="#34A1B9"/>
<path d="M92.6012 31.1299V92.3081C92.6012 93.1319 92.439 93.9477 92.1237 94.7089C91.8084 95.47 91.3463 96.1616 90.7638 96.7441C90.1812 97.3267 89.4896 97.7888 88.7285 98.1041C87.9673 98.4194 87.1516 98.5816 86.3277 98.5816H25.1037C23.4478 98.5695 21.8639 97.9032 20.6972 96.728C19.5306 95.5528 18.8759 93.964 18.876 92.3081V83.1497H70.8958C72.5517 83.1376 74.1356 82.4713 75.3023 81.2961C76.4689 80.1209 77.1236 78.5321 77.1235 76.8762V24.8564H86.2819C87.1096 24.8503 87.9303 25.0081 88.6968 25.3207C89.4632 25.6333 90.1602 26.0944 90.7476 26.6776C91.335 27.2607 91.8012 27.9543 92.1193 28.7185C92.4375 29.4826 92.6012 30.3022 92.6012 31.1299Z" stroke="#34A1B9" stroke-width="1.9802" stroke-linecap="round" stroke-linejoin="round"/>
<path d="M40.3008 46.5542V54.0838L43.6351 57.4338" stroke="white" stroke-width="1.9802" stroke-linecap="round" stroke-linejoin="round"/>
</svg>
