<svg width="15" height="14" viewBox="0 0 15 14" fill="none" xmlns="http://www.w3.org/2000/svg">
<path d="M11.4 12.9999C11.4 11.5855 10.8522 10.2289 9.87699 9.22872C8.90179 8.22853 7.57915 7.66663 6.20002 7.66663C4.82089 7.66663 3.49824 8.22853 2.52305 9.22872C1.54786 10.2289 1 11.5855 1 12.9999" stroke="#0D478D" stroke-width="0.68817" stroke-linecap="round" stroke-linejoin="round"/>
<path d="M6.19996 7.66664C7.99489 7.66664 9.44997 6.17426 9.44997 4.33332C9.44997 2.49238 7.99489 1 6.19996 1C4.40503 1 2.94995 2.49238 2.94995 4.33332C2.94995 6.17426 4.40503 7.66664 6.19996 7.66664Z" stroke="#0D478D" stroke-width="0.68817" stroke-linecap="round" stroke-linejoin="round"/>
<path d="M13.9999 12.3335C13.9999 10.0869 12.6999 8.00023 11.3999 7.00023C11.8272 6.67141 12.169 6.23963 12.3948 5.74308C12.6206 5.24654 12.7237 4.70055 12.6947 4.15344C12.6658 3.60633 12.5058 3.07497 12.229 2.60638C11.9521 2.13779 11.5669 1.74643 11.1074 1.46692" stroke="#0D478D" stroke-width="0.68817" stroke-linecap="round" stroke-linejoin="round"/>
</svg>
