<svg width="20" height="20" viewBox="0 0 20 20" fill="none" xmlns="http://www.w3.org/2000/svg">
<path d="M8.58032 7.61255C7.94732 7.61255 7.34025 7.86401 6.89266 8.3116C6.44506 8.7592 6.1936 9.36627 6.1936 9.99927C6.1936 10.6323 6.44506 11.2393 6.89266 11.6869C7.34025 12.1345 7.94732 12.386 8.58032 12.386" stroke="#0D478D" stroke-width="1.07787" stroke-linecap="round" stroke-linejoin="round"/>
<path d="M2.21606 9.99976H3.01164" stroke="#0D478D" stroke-width="1.07787" stroke-linecap="round" stroke-linejoin="round"/>
<path d="M11.7627 17.1599V2.8396" stroke="#0D478D" stroke-width="1.07787" stroke-linecap="round" stroke-linejoin="round"/>
<path d="M8.58081 3.63517V2.8396" stroke="#0D478D" stroke-width="1.07787" stroke-linecap="round" stroke-linejoin="round"/>
<path d="M8.58081 17.1593V16.3638" stroke="#0D478D" stroke-width="1.07787" stroke-linecap="round" stroke-linejoin="round"/>
<path d="M3.52075 15.0593L4.07765 14.5024" stroke="#0D478D" stroke-width="1.07787" stroke-linecap="round" stroke-linejoin="round"/>
<path d="M4.07765 5.4966L3.52075 4.9397" stroke="#0D478D" stroke-width="1.07787" stroke-linecap="round" stroke-linejoin="round"/>
<path d="M11.7627 9.99976H18.1273" stroke="#0D478D" stroke-width="1.07787" stroke-linecap="round" stroke-linejoin="round"/>
<path d="M14.1494 3.63477L11.7627 6.02148" stroke="#0D478D" stroke-width="1.07787" stroke-linecap="round" stroke-linejoin="round"/>
<path d="M11.7627 13.9773L14.1494 16.364" stroke="#0D478D" stroke-width="1.07787" stroke-linecap="round" stroke-linejoin="round"/>
<path d="M17.3318 12.386L14.9451 9.99927L17.3318 7.61255" stroke="#0D478D" stroke-width="1.07787" stroke-linecap="round" stroke-linejoin="round"/>
</svg>
