<svg width="78" height="101" viewBox="0 0 78 101" fill="none" xmlns="http://www.w3.org/2000/svg">
<path d="M11.7681 20.3826L41.7164 8.68286L72.3778 20.3826V72.1957C60.4038 80.681 60.9689 89.7452 41.7164 93.9237C22.4639 98.1022 11.7681 74.7027 11.7681 74.7027V20.3826Z" fill="#34A1B9"/>
<path d="M41.0943 97.38L19.4579 89.2495L5.49902 71.1405V21.6179V18.2918L19.4579 16.0743L35.5107 6.0959L37.2556 4.24805H41.0943L48.0737 10.1612L67.6162 32.705L53.6573 91.0973L41.0943 97.38Z" fill="#34A1B9" stroke="#34A1B9" stroke-width="0.840336"/>
<path d="M74.3629 55.4952C74.3629 78.9014 58.8917 90.6045 40.5032 97.3923C39.5403 97.7379 38.4943 97.7213 37.5416 97.3455C19.1088 90.6045 3.6377 78.9014 3.6377 55.4952V22.7266C3.6377 21.485 4.10341 20.2943 4.93238 19.4164C5.76135 18.5385 6.88568 18.0453 8.05802 18.0453C16.8987 18.0453 27.9495 12.4278 35.6408 5.31236C36.5773 4.46505 37.7686 3.99951 39.0003 3.99951C40.232 3.99951 41.4233 4.46505 42.3597 5.31236C50.0953 12.4747 61.1019 18.0453 69.9425 18.0453C71.1149 18.0453 72.2392 18.5385 73.0682 19.4164C73.8972 20.2943 74.3629 21.485 74.3629 22.7266V55.4952Z" stroke="#34A1B9" stroke-width="3.36134" stroke-linecap="round" stroke-linejoin="round"/>
<path d="M58.3343 87.0322L68.3127 77.0537L73.8563 61.9013V21.618L71.6389 17.5527L64.9866 19.7702L57.2256 87.0322H58.3343Z" fill="#34A1B9" stroke="#34A1B9" stroke-width="0.840336"/>
<path d="M23.3667 51.5462L35.9717 63.7311L61.1818 39.3613" stroke="white" stroke-width="3.36134" stroke-linecap="round" stroke-linejoin="round"/>
</svg>
